<?xml version="1.0" encoding="iso-8859-1"?>
<!-- Uploaded to: SVG Repo, www.svgrepo.com, Generator: SVG Repo Mixer Tools -->
<svg version="1.1" id="Layer_1" xmlns="http://www.w3.org/2000/svg" xmlns:xlink="http://www.w3.org/1999/xlink" 
	 viewBox="0 0 509.549 509.549" xml:space="preserve">
<g>
	<circle style="fill:#EFC787;" cx="254.778" cy="103.455" r="23.893"/>
	<rect x="15.843" y="191.055" style="fill:#EFC787;" width="485.826" height="119.466"/>
</g>
<rect x="15.843" y="310.521" style="fill:#874771;" width="485.826" height="119.466"/>
<g>
	<rect x="414.062" y="302.641" style="fill:#FFFFFF;" width="63.72" height="15.759"/>
	<rect x="31.773" y="302.641" style="fill:#FFFFFF;" width="63.72" height="15.759"/>
	<path style="fill:#FFFFFF;" d="M159.117,350.262h-47.616v-79.474h47.616V350.262z M127.259,334.503h16.098v-47.955h-16.098
		C127.259,286.548,127.259,334.503,127.259,334.503z"/>
	<polygon style="fill:#FFFFFF;" points="318.488,286.548 318.488,270.788 270.788,270.788 270.788,350.262 318.488,350.262 
		318.488,334.503 286.547,334.503 286.547,318.404 318.488,318.404 318.488,302.645 286.547,302.645 286.547,286.548 	"/>
	<polygon style="fill:#FFFFFF;" points="366.19,350.347 350.431,350.347 350.431,270.788 372.427,270.788 382.289,310.235 
		382.289,270.703 398.048,270.703 398.048,350.262 376.05,350.262 366.19,310.82 	"/>
	<path style="fill:#FFFFFF;" d="M206.903,350.347h-15.759v-79.559h47.616v47.616h-31.857V350.347z M206.903,302.645h16.098v-16.098
		h-16.098V302.645z"/>
</g>
<path style="fill:#222221;" d="M323.672,183.18l-38.894-90.181l-0.004,0.005c-4.332-12.401-16.141-21.325-30-21.325
	c-13.262,0-24.646,8.17-29.398,19.739l-0.004-0.004l-39.498,91.766H0v254.69h509.549V183.18L323.672,183.18L323.672,183.18z
	 M254.774,87.439c8.829,0,16.013,7.184,16.013,16.013s-7.184,16.013-16.014,16.013c-8.829,0-16.013-7.184-16.013-16.013
	S245.944,87.439,254.774,87.439z M230.325,123.719c5.833,7.025,14.627,11.506,24.449,11.506c9.822,0,18.616-4.482,24.449-11.506
	l27.029,59.462H203.295L230.325,123.719z M493.79,422.111H15.759V198.939h478.03V422.111z"/>
</svg>