<?xml version="1.0" encoding="iso-8859-1"?>
<!-- Uploaded to: SVG Repo, www.svgrepo.com, Generator: SVG Repo Mixer Tools -->
<svg version="1.1" id="Layer_1" xmlns="http://www.w3.org/2000/svg" xmlns:xlink="http://www.w3.org/1999/xlink" 
	 viewBox="0 0 512.005 512.005" xml:space="preserve">
<polygon style="fill:#FEB860;" points="328,152.001 272,152.001 255.999,168.001 240,152.001 184,152.001 184,8 328,8 "/>
<path style="fill:#9B4573;" d="M255.999,264L255.999,264c-8.836,0-16-7.164-16-16.001v-32.001c0-8.836,7.164-16,16-16l0,0
	c8.836,0,16,7.164,16,16V248C272,256.837,264.837,264,255.999,264z"/>
<rect x="200" y="288.005" style="fill:#C8546F;" width="111.995" height="80.004"/>
<rect x="119.996" y="367.998" style="fill:#FEC986;" width="272.003" height="127.996"/>
<rect x="119.996" y="367.998" style="fill:#FEB860;" width="272.003" height="32.001"/>
<g>
	<rect y="496.141" style="fill:#1D1D1B;" width="512.005" height="15.728"/>
	<rect x="143.997" y="392.136" style="fill:#1D1D1B;" width="224.001" height="15.728"/>
	<path style="fill:#1D1D1B;" d="M255.999,271.865c-13.158,0-23.864-10.706-23.864-23.865v-32.001
		c0-13.158,10.706-23.864,23.864-23.864c13.158,0,23.864,10.706,23.864,23.864V248C279.864,261.159,269.159,271.865,255.999,271.865
		z M255.999,207.864c-4.486,0-8.136,3.649-8.136,8.136v32.001c0,4.486,3.65,8.137,8.136,8.137s8.136-3.65,8.136-8.137V216
		C264.136,211.514,260.486,207.864,255.999,207.864z"/>
	<path style="fill:#1D1D1B;" d="M416,360.136h-96.136v-80H192.136v80H96v15.728h16.136V488h15.728V375.865h256.272V488h15.728
		V375.865H416L416,360.136L416,360.136z M207.864,295.865h96.271v64.272h-16.272v-32.135h-15.728v32.135h-32.271v-32.135h-15.728
		v32.135h-16.271V295.865z"/>
	<path style="fill:#1D1D1B;" d="M255.999,179.122l-19.257-19.257h-60.607V0.136h159.728v159.729h-60.605L255.999,179.122z
		 M191.864,144.137h51.393l12.743,12.742l12.744-12.742h51.391V15.864H191.864V144.137z"/>
</g>
<g>
	<rect x="248.139" y="40.003" style="fill:#FFFFFF;" width="15.728" height="16.001"/>
	<rect x="248.139" y="64.004" style="fill:#FFFFFF;" width="15.728" height="56.003"/>
</g>
</svg>